<svg width="64" height="64" viewBox="0 0 64 64" fill="none" xmlns="http://www.w3.org/2000/svg">
<g filter="url(#filter0_d_1_326)">
<rect x="10" y="9" width="44" height="44" rx="9.42857" fill="white"/>
<path d="M23.2382 34.7905L21.913 35.2687L21.8425 39.162L26.4298 37.507C24.8551 36.9861 23.7067 36.0681 23.2382 34.7905Z" fill="#FDBD39"/>
<path d="M23.932 30.6725L19.3332 32.3317L21.9131 35.2696L23.2384 34.7914C22.771 33.5179 23.0594 32.0801 23.932 30.6725Z" fill="#F69833"/>
<path d="M31.6701 25.0534C25.8144 27.1659 22.0387 31.526 23.2386 34.7904L44.4436 27.1399C43.2436 23.8755 37.5258 22.9409 31.6701 25.0534Z" fill="#FECF33"/>
<path d="M36.0108 36.8779C41.8665 34.7655 45.6486 30.4251 44.4423 27.141L23.2373 34.7904C24.4436 38.0756 30.1551 38.9904 36.0108 36.8779Z" fill="#EE6723"/>
<path d="M44.4421 27.1399L23.2382 34.7904C23.6529 35.9215 25.2371 36.4787 27.4581 36.4787C29.6244 36.4787 32.397 35.9496 35.2875 34.9068C41.1432 32.7944 45.2621 29.373 44.4421 27.1399" fill="#F69833"/>
<path d="M40.2222 25.4526C38.057 25.4526 35.2833 25.9818 32.3928 27.0245C26.5371 29.137 22.4182 32.5573 23.2382 34.7904L44.4432 27.1399C44.0274 26.0088 42.4443 25.4526 40.2222 25.4526" fill="#FDBD39"/>
<path fill-rule="evenodd" clip-rule="evenodd" d="M36.3151 37.7148C37.5067 38.8127 38.4267 39.3689 39.0509 39.3689C39.2162 39.373 39.3783 39.3262 39.514 39.2348C40.2814 38.7025 39.6962 36.9029 39.0709 35.487L39.0214 35.3768L38.9151 35.436C38.8351 35.4818 38.7488 35.5285 38.6604 35.5764L38.572 35.6242L38.613 35.7157C39.4951 37.7138 39.4951 38.6401 39.2267 38.8262C39.1804 38.8584 39.1193 38.874 39.0435 38.874C38.8235 38.874 38.1509 38.7253 36.6583 37.3499C35.2731 36.0743 33.6836 34.201 32.1805 32.0729C30.6784 29.9458 29.4458 27.824 28.71 26.0983C27.9184 24.2425 27.9353 23.3776 28.19 23.2009C28.2332 23.1707 28.2932 23.1562 28.369 23.1562C28.6342 23.1562 29.4489 23.3547 31.3015 25.1979L31.47 25.3653L31.4889 25.1293C31.4984 25.0098 31.5089 24.8892 31.5205 24.7686L31.5257 24.7166L31.4879 24.6802C29.7689 23.0085 28.8384 22.6582 28.3616 22.6582C28.1974 22.654 28.0363 22.7008 27.9005 22.7923C27.3142 23.1998 27.4311 24.3767 28.2468 26.2916C28.9963 28.0496 30.2468 30.2037 31.7689 32.3588C33.292 34.5139 34.9057 36.4164 36.3151 37.7148Z" fill="#EE6723"/>
<path d="M36.1531 36.8176L36.1447 36.9257C35.9963 38.7347 35.6068 40.9095 34.59 40.9979C34.5689 41 34.5479 41 34.5279 41C33.8373 41 33.1837 40.0227 32.5868 38.0963C32.0205 36.2729 31.5816 33.8256 31.3511 31.2048C31.1195 28.5839 31.1226 26.0982 31.3605 24.2051C31.6195 22.1425 32.1121 21.0655 32.8258 21.0031C32.8468 21.001 32.8689 21 32.89 21C33.391 21 34.1458 21.5603 34.9184 24.1697L34.4142 24.2654C34.1563 23.3942 33.8752 22.6852 33.5963 22.1966C33.3384 21.7464 33.0868 21.4979 32.89 21.4979C32.8837 21.4979 32.8774 21.4979 32.87 21.499C32.5605 21.526 32.11 22.2662 31.8595 24.2664C31.6258 26.1252 31.6226 28.5746 31.8511 31.1611C32.0795 33.7487 32.511 36.1595 33.0668 37.9498C33.3152 38.7513 33.5879 39.4125 33.8563 39.8606C34.1026 40.2743 34.3415 40.502 34.5279 40.502C34.5342 40.502 34.5405 40.502 34.5468 40.501C34.8426 40.476 35.4005 39.7046 35.6352 36.9923L36.1531 36.8176Z" fill="#EE6723"/>
<rect x="10" y="9" width="44" height="44" rx="9.42857" stroke="#F2F4F7"/>
</g>
<defs>
<filter id="filter0_d_1_326" x="0" y="0" width="64" height="64" filterUnits="userSpaceOnUse" color-interpolation-filters="sRGB">
<feFlood flood-opacity="0" result="BackgroundImageFix"/>
<feColorMatrix in="SourceAlpha" type="matrix" values="0 0 0 0 0 0 0 0 0 0 0 0 0 0 0 0 0 0 127 0" result="hardAlpha"/>
<feOffset dy="1"/>
<feGaussianBlur stdDeviation="5"/>
<feColorMatrix type="matrix" values="0 0 0 0 0 0 0 0 0 0 0 0 0 0 0 0 0 0 0.06 0"/>
<feBlend mode="normal" in2="BackgroundImageFix" result="effect1_dropShadow_1_326"/>
<feBlend mode="normal" in="SourceGraphic" in2="effect1_dropShadow_1_326" result="shape"/>
</filter>
</defs>
</svg>
