<svg width="100" height="23" viewBox="0 0 100 23" fill="none" xmlns="http://www.w3.org/2000/svg">
<path fill-rule="evenodd" clip-rule="evenodd" d="M4.9919 5.26093C4.9919 2.50255 7.22278 0.260925 9.9835 0.260925C12.7441 0.260925 14.9749 2.50239 14.9751 5.26065C17.7357 5.26078 19.9664 7.50235 19.9664 10.2606H17.4706C17.4706 8.88495 16.3482 7.76065 14.9748 7.76065V5.26093H12.4793C12.4793 3.88523 11.3569 2.76093 9.9835 2.76093C8.61011 2.76093 7.4877 3.88523 7.4877 5.26093H4.9919ZM31.6585 18.0988C29.6147 18.0988 27.9954 17.5297 26.8006 16.3915C25.6058 15.2374 25.0083 13.5933 25.0083 11.4591V7.47528C25.0083 5.34108 25.6058 3.70487 26.8006 2.56663C27.9954 1.41259 29.6147 0.835567 31.6585 0.835567C33.6866 0.835567 35.2509 1.39678 36.3514 2.51921C37.4676 3.62582 38.0257 5.15138 38.0257 7.09586V7.23814H34.9601V7.00101C34.9601 6.02086 34.6849 5.21461 34.1347 4.58226C33.6001 3.94991 32.7748 3.63373 31.6585 3.63373C30.558 3.63373 29.6934 3.97362 29.0645 4.6534C28.4356 5.33318 28.1212 6.25799 28.1212 7.42785V11.5065C28.1212 12.6606 28.4356 13.5854 29.0645 14.281C29.6934 14.9608 30.558 15.3006 31.6585 15.3006C32.7748 15.3006 33.6001 14.9845 34.1347 14.3521C34.6849 13.704 34.9601 12.8977 34.9601 11.9334V11.5065H38.0257V11.8385C38.0257 13.783 37.4676 15.3165 36.3514 16.4389C35.2509 17.5455 33.6866 18.0988 31.6585 18.0988ZM39.9144 17.7668V1.16755H42.8858V17.7668H39.9144ZM47.8654 17.3874C48.793 17.8617 49.8384 18.0988 51.0018 18.0988C52.1652 18.0988 53.2107 17.8617 54.1383 17.3874C55.0658 16.9131 55.7969 16.2255 56.3314 15.3244C56.8659 14.4233 57.1332 13.3403 57.1332 12.0756V11.6962C57.1332 10.4315 56.8659 9.34862 56.3314 8.44752C55.7969 7.54641 55.0658 6.85873 54.1383 6.38447C53.2107 5.9102 52.1652 5.67307 51.0018 5.67307C49.8384 5.67307 48.793 5.9102 47.8654 6.38447C46.9378 6.85873 46.2068 7.54641 45.6722 8.44752C45.1377 9.34862 44.8704 10.4315 44.8704 11.6962V12.0756C44.8704 13.3403 45.1377 14.4233 45.6722 15.3244C46.2068 16.2255 46.9378 16.9131 47.8654 17.3874ZM53.2657 14.5655C52.6683 15.1505 51.9137 15.4429 51.0018 15.4429C50.09 15.4429 49.3353 15.1505 48.7379 14.5655C48.1405 13.9648 47.8418 13.1111 47.8418 12.0045V11.7674C47.8418 10.6608 48.1405 9.81498 48.7379 9.23005C49.3353 8.62932 50.09 8.32895 51.0018 8.32895C51.9294 8.32895 52.684 8.62932 53.2657 9.23005C53.8631 9.81498 54.1618 10.6608 54.1618 11.7674V12.0045C54.1618 13.1111 53.8631 13.9648 53.2657 14.5655ZM59.1339 17.7668V6.00505H62.0581V7.54641H62.4826C62.6712 7.13539 63.025 6.74807 63.5438 6.38447C64.0626 6.00505 64.8487 5.81535 65.902 5.81535C66.8139 5.81535 67.6078 6.02877 68.2838 6.45561C68.9756 6.86663 69.5101 7.44366 69.8874 8.18667C70.2647 8.91388 70.4534 9.76755 70.4534 10.7477V17.7668H67.482V10.9848C67.482 10.0995 67.2619 9.43557 66.8217 8.99292C66.3972 8.55027 65.7841 8.32895 64.9823 8.32895C64.0704 8.32895 63.363 8.63722 62.8599 9.25377C62.3568 9.8545 62.1053 10.7003 62.1053 11.7911V17.7668H59.1339ZM72.9235 6.00505V17.7668H75.8949V6.00505H72.9235ZM73.0414 4.10799C73.4187 4.45579 73.8746 4.62969 74.4092 4.62969C74.9594 4.62969 75.4154 4.45579 75.7769 4.10799C76.1385 3.7602 76.3193 3.30174 76.3193 2.73263C76.3193 2.16351 76.1385 1.70505 75.7769 1.35726C75.4154 1.00946 74.9594 0.835567 74.4092 0.835567C73.8746 0.835567 73.4187 1.00946 73.0414 1.35726C72.6798 1.70505 72.499 2.16351 72.499 2.73263C72.499 3.30174 72.6798 3.7602 73.0414 4.10799ZM80.3792 17.7668V8.47123H77.4079V6.00505H80.3792V3.82344C80.3792 3.01719 80.6151 2.37693 81.0867 1.90266C81.5741 1.41259 82.2029 1.16755 82.9733 1.16755H86.039V3.63373H84.0109C83.5707 3.63373 83.3506 3.87086 83.3506 4.34513V6.00505H86.4163V8.47123H83.3506V17.7668H80.3792ZM89.2481 19.901V22.5095H96.6057C97.3918 22.5095 98.0207 22.2644 98.4923 21.7744C98.964 21.3001 99.1998 20.6598 99.1998 19.8536V6.00505H96.2284V11.9808C96.2284 13.0716 95.9769 13.9253 95.4738 14.5418C94.9707 15.1426 94.2632 15.4429 93.3514 15.4429C92.5496 15.4429 91.9286 15.2216 91.4884 14.779C91.0639 14.3363 90.8517 13.6723 90.8517 12.787V6.00505H87.8803V13.0242C87.8803 13.9885 88.069 14.8422 88.4463 15.5852C88.8236 16.3282 89.3503 16.9131 90.0263 17.34C90.718 17.751 91.5198 17.9565 92.4317 17.9565C93.1391 17.9565 93.7208 17.8696 94.1768 17.6957C94.6327 17.5218 94.9943 17.3005 95.2615 17.0317C95.5288 16.763 95.7253 16.4942 95.8511 16.2255H96.2756V19.1896C96.2756 19.6639 96.0555 19.901 95.6153 19.901H89.2481ZM14.9748 15.2607V12.7607C16.3482 12.7607 17.4706 11.6364 17.4706 10.2607H19.9664C19.9664 13.0261 17.7356 15.2607 14.9748 15.2607ZM9.98426 14.926C12.5637 14.926 14.6412 12.831 14.6412 10.2612C14.6412 7.67737 12.5637 5.59636 9.98426 5.59636C7.40481 5.59636 5.3273 7.67737 5.3273 10.2612C5.3273 12.831 7.40481 14.926 9.98426 14.926ZM9.98426 12.5936C8.70151 12.5936 7.65578 11.5461 7.65578 10.2612C7.65578 8.97625 8.70151 7.92877 9.98426 7.92877C11.267 7.92877 12.3127 8.97625 12.3127 10.2612C12.3127 11.5461 11.267 12.5936 9.98426 12.5936ZM0 10.2607H2.4958C2.4958 11.6364 3.61821 12.7607 4.9916 12.7607V15.2607C2.23088 15.2607 0 13.0261 0 10.2607ZM0 10.2606H2.4958C2.4958 8.88495 3.61821 7.76065 4.9916 7.76065V5.26065C2.23088 5.26065 0 7.50227 0 10.2606ZM7.4877 15.261C7.4877 16.6367 8.61011 17.761 9.9835 17.761C11.3569 17.761 12.4793 16.6367 12.4793 15.261H14.9751C14.9751 18.0264 12.7442 20.261 9.9835 20.261C7.22278 20.261 4.9919 18.0264 4.9919 15.261H7.4877Z" fill="#282828"/>
</svg>
