<svg width="21" height="20" viewBox="0 0 21 20" fill="none" xmlns="http://www.w3.org/2000/svg">
<path fill-rule="evenodd" clip-rule="evenodd" d="M5.1406 2.66536C4.53282 2.66536 3.94992 2.9068 3.52015 3.33657C3.09038 3.76634 2.84894 4.34924 2.84894 4.95703V14.957C2.84894 15.5648 3.09038 16.1477 3.52015 16.5775C3.94992 17.0072 4.53282 17.2487 5.1406 17.2487H10.9739C11.5817 17.2487 12.1646 17.0072 12.5944 16.5775C13.0242 16.1477 13.2656 15.5648 13.2656 14.957V13.2904C13.2656 12.9452 12.9858 12.6654 12.6406 12.6654C12.2954 12.6654 12.0156 12.9452 12.0156 13.2904V14.957C12.0156 15.2333 11.9059 15.4982 11.7105 15.6936C11.5152 15.8889 11.2502 15.9987 10.9739 15.9987H5.1406C4.86434 15.9987 4.59939 15.8889 4.40403 15.6936C4.20868 15.4982 4.09894 15.2333 4.09894 14.957V4.95703C4.09894 4.68076 4.20868 4.41581 4.40403 4.22046C4.59939 4.02511 4.86434 3.91536 5.1406 3.91536H10.9739C11.2502 3.91536 11.5152 4.02511 11.7105 4.22046C11.9059 4.41581 12.0156 4.68076 12.0156 4.95703V6.62369C12.0156 6.96887 12.2954 7.24869 12.6406 7.24869C12.9858 7.24869 13.2656 6.96887 13.2656 6.62369V4.95703C13.2656 4.34924 13.0242 3.76634 12.5944 3.33657C12.1646 2.9068 11.5817 2.66536 10.9739 2.66536H5.1406ZM16.4159 7.01508C16.1718 6.77101 15.7761 6.77101 15.532 7.01508C15.2879 7.25916 15.2879 7.65489 15.532 7.89897L16.9651 9.33203H6.80727C6.46209 9.33203 6.18227 9.61185 6.18227 9.95703C6.18227 10.3022 6.46209 10.582 6.80727 10.582H16.9651L15.532 12.0151C15.2879 12.2592 15.2879 12.6549 15.532 12.899C15.7761 13.143 16.1718 13.143 16.4159 12.899L18.9126 10.4022C18.9246 10.3904 18.9362 10.3781 18.9473 10.3652C19.03 10.2695 19.0789 10.1547 19.0939 10.0363C19.099 9.99646 19.1002 9.95639 19.0976 9.91668C19.0882 9.77043 19.0276 9.62685 18.9159 9.51508L16.4159 7.01508Z" fill="#5F6980"/>
</svg>
