<svg width="16" height="16" viewBox="0 0 16 16" fill="none" xmlns="http://www.w3.org/2000/svg">
<path fill-rule="evenodd" clip-rule="evenodd" d="M2.18488 2.12371C2.18488 2.00865 2.27815 1.91537 2.39321 1.91537H5.72654C5.8416 1.91537 5.93488 2.00865 5.93488 2.12371V5.45704C5.93488 5.5721 5.8416 5.66537 5.72654 5.66537H2.39321C2.27815 5.66537 2.18488 5.5721 2.18488 5.45704V2.12371ZM2.39321 0.665375C1.58779 0.665375 0.934875 1.31829 0.934875 2.12371V5.45704C0.934875 6.26246 1.58779 6.91537 2.39321 6.91537H5.72654C6.53196 6.91537 7.18488 6.26246 7.18488 5.45704V2.12371C7.18488 1.31829 6.53196 0.665375 5.72654 0.665375H2.39321ZM10.5182 2.12371C10.5182 2.00865 10.6115 1.91537 10.7265 1.91537H14.0599C14.1749 1.91537 14.2682 2.00865 14.2682 2.12371V5.45704C14.2682 5.5721 14.1749 5.66537 14.0599 5.66537H10.7265C10.6115 5.66537 10.5182 5.5721 10.5182 5.45704V2.12371ZM10.7265 0.665375C9.92113 0.665375 9.26821 1.31829 9.26821 2.12371V5.45704C9.26821 6.26246 9.92113 6.91537 10.7265 6.91537H14.0599C14.8653 6.91537 15.5182 6.26246 15.5182 5.45704V2.12371C15.5182 1.31829 14.8653 0.665375 14.0599 0.665375H10.7265ZM2.39321 10.2487C2.27815 10.2487 2.18488 10.342 2.18488 10.457V13.7904C2.18488 13.9054 2.27815 13.9987 2.39321 13.9987H5.72654C5.8416 13.9987 5.93488 13.9054 5.93488 13.7904V10.457C5.93488 10.342 5.8416 10.2487 5.72654 10.2487H2.39321ZM0.934875 10.457C0.934875 9.65163 1.58779 8.99871 2.39321 8.99871H5.72654C6.53196 8.99871 7.18488 9.65163 7.18488 10.457V13.7904C7.18488 14.5958 6.53196 15.2487 5.72654 15.2487H2.39321C1.58779 15.2487 0.934875 14.5958 0.934875 13.7904V10.457ZM10.5182 10.457C10.5182 10.342 10.6115 10.2487 10.7265 10.2487H14.0599C14.1749 10.2487 14.2682 10.342 14.2682 10.457V13.7904C14.2682 13.9054 14.1749 13.9987 14.0599 13.9987H10.7265C10.6115 13.9987 10.5182 13.9054 10.5182 13.7904V10.457ZM10.7265 8.99871C9.92113 8.99871 9.26821 9.65163 9.26821 10.457V13.7904C9.26821 14.5958 9.92113 15.2487 10.7265 15.2487H14.0599C14.8653 15.2487 15.5182 14.5958 15.5182 13.7904V10.457C15.5182 9.65163 14.8653 8.99871 14.0599 8.99871H10.7265Z" fill="#5F6980"/>
</svg>
