<svg width="17" height="14" viewBox="0 0 17 14" fill="none" xmlns="http://www.w3.org/2000/svg">
<path fill-rule="evenodd" clip-rule="evenodd" d="M1.39936 2.44301C1.52957 2.01621 1.92645 1.70572 2.39586 1.70572H14.0625C14.5319 1.70572 14.9288 2.0162 15.059 2.44301L8.22919 6.99623L1.39936 2.44301ZM0.10422 2.73594C0.104105 2.74261 0.104095 2.74927 0.104192 2.75593V11.0807C0.104192 12.3464 1.13021 13.3724 2.39586 13.3724H14.0625C15.3282 13.3724 16.3542 12.3464 16.3542 11.0807V2.75586M15.1042 3.91521V11.0807C15.1042 11.656 14.6378 12.1224 14.0625 12.1224H2.39586C1.82056 12.1224 1.35419 11.656 1.35419 11.0807V3.91521L7.8825 8.26742C8.09244 8.40737 8.36594 8.40737 8.57588 8.26742L15.1042 3.91521ZM16.3542 2.73603C16.348 1.4756 15.3244 0.455719 14.0625 0.455719H2.39586C1.13402 0.455719 0.110384 1.47555 0.10422 2.73594" fill="#5F6980"/>
</svg>
