<svg width="12" height="17" viewBox="0 0 12 17" fill="none" xmlns="http://www.w3.org/2000/svg">
<path fill-rule="evenodd" clip-rule="evenodd" d="M2.94529 4.66698C2.94529 3.17121 4.15785 1.95865 5.65363 1.95865C7.1494 1.95865 8.36196 3.17121 8.36196 4.66698C8.36196 6.16275 7.1494 7.37532 5.65363 7.37532C4.15785 7.37532 2.94529 6.16275 2.94529 4.66698ZM5.65363 0.708649C3.4675 0.708649 1.69529 2.48085 1.69529 4.66698C1.69529 6.85311 3.4675 8.62532 5.65363 8.62532C7.83975 8.62532 9.61196 6.85311 9.61196 4.66698C9.61196 2.48085 7.83975 0.708649 5.65363 0.708649ZM2.07188 11.8323C2.57979 11.3244 3.26866 11.0391 3.98696 11.0391H7.32029C8.03859 11.0391 8.72746 11.3244 9.23537 11.8323C9.74328 12.3402 10.0286 13.0291 10.0286 13.7474V15.4141C10.0286 15.7592 10.3084 16.0391 10.6536 16.0391C10.9988 16.0391 11.2786 15.7592 11.2786 15.4141V13.7474C11.2786 12.6976 10.8616 11.6908 10.1193 10.9484C9.37692 10.2061 8.37011 9.78905 7.32029 9.78905H3.98696C2.93714 9.78905 1.93033 10.2061 1.18799 10.9484C0.445663 11.6908 0.0286255 12.6976 0.0286255 13.7474V15.4141C0.0286255 15.7592 0.308448 16.0391 0.653625 16.0391C0.998803 16.0391 1.27863 15.7592 1.27863 15.4141V13.7474C1.27863 13.0291 1.56397 12.3402 2.07188 11.8323Z" fill="#5F6980"/>
</svg>
