<svg width="20" height="20" viewBox="0 0 20 20" fill="none" xmlns="http://www.w3.org/2000/svg">
<path fill-rule="evenodd" clip-rule="evenodd" d="M4.13806 8.50993C4.13806 6.14304 6.0568 4.2243 8.42369 4.2243C10.7906 4.2243 12.7093 6.14304 12.7093 8.50993C12.7093 10.8768 10.7906 12.7956 8.42369 12.7956C6.0568 12.7956 4.13806 10.8768 4.13806 8.50993ZM8.42369 2.9743C5.36645 2.9743 2.88806 5.45269 2.88806 8.50993C2.88806 11.5672 5.36645 14.0456 8.42369 14.0456C9.72713 14.0456 10.9254 13.5951 11.8711 12.8413L15.6982 16.6683C15.9423 16.9124 16.338 16.9124 16.5821 16.6683C16.8262 16.4242 16.8262 16.0285 16.5821 15.7844L12.755 11.9574C13.5088 11.0116 13.9593 9.81337 13.9593 8.50993C13.9593 5.45269 11.4809 2.9743 8.42369 2.9743Z" fill="#282828"/>
</svg>
